# xmcd
#
# Track frame offsets:
#	150
#	16203
#	32585
#	50875
#	61799
#	75660
#	90090
#	102274
#	114842
#	133888
#
# Disc length: 1970 seconds
#
# Revision: 0
# Processed by: cddbd v1.5.2PL0 Copyright (c) Steve Scherf et al.
# Submitted via: EasyCDDAExtractor 12.0.0.1
#
DISCID=7107b00a
DTITLE=Yuri - Esperanzas
DYEAR=1980
DGENRE=Latin
TTITLE0=Primer Amor
TTITLE1=Goma De Mascar
TTITLE2=Esperanzas
TTITLE3=Bailad (The Clappinc Song)
TTITLE4=Regresaras
TTITLE5=Eso Que Llaman Amor
TTITLE6=Ease On Down The Road
TTITLE7=Si Me Recuerdas (If You Remember Me)
TTITLE8=Nunca He Sido Tan Feliz
TTITLE9=Nuestro Dia
EXTD=
EXTT0=
EXTT1=
EXTT2=
EXTT3=
EXTT4=
EXTT5=
EXTT6=
EXTT7=
EXTT8=
EXTT9=
PLAYORDER=
